# WaveFront *.obj file (generated by Autodesk ATF)

mtllib Inside.mtl

g Inside

v -30.000000 0.000000 -45.000000
v -30.000000 0.000000 45.000000
v -30.000000 20.000000 -45.000000
v -30.000000 20.000000 45.000000
v -29.000001 1.500000 -44.000001
v -29.000001 1.500000 44.000001
v -29.000001 20.000000 -44.000001
v -29.000001 20.000000 44.000001
v -9.000000 1.500000 44.000001
v -9.000000 1.500000 45.000000
v -9.000000 20.000000 44.000001
v -9.000000 20.000000 45.000000
v 9.000000 1.500000 44.000001
v 9.000000 1.500000 45.000000
v 9.000000 20.000000 44.000001
v 9.000000 20.000000 45.000000
v 29.000001 1.500000 -44.000001
v 29.000001 1.500000 -43.000002
v 29.000001 1.500000 -8.000000
v 29.000001 1.500000 44.000001
v 29.000001 20.000000 -44.000001
v 29.000001 20.000000 -43.000002
v 29.000001 20.000000 -8.000000
v 29.000001 20.000000 44.000001
v 30.000000 0.000000 -45.000000
v 30.000000 0.000000 45.000000
v 30.000000 1.500000 -43.000002
v 30.000000 1.500000 -8.000000
v 30.000000 20.000000 -45.000000
v 30.000000 20.000000 -43.000002
v 30.000000 20.000000 -8.000000
v 30.000000 20.000000 45.000000
vt 4.400000 2.900000 0.000000
vt -0.800000 2.900000 0.000000
vt -0.800000 3.000000 0.000000
vt -4.300000 3.000000 0.000000
vt -4.300000 2.900000 0.000000
vt -4.400000 2.900000 0.000000
vt -4.400000 -2.900000 0.000000
vt 4.400000 -2.900000 0.000000
vt 4.400000 -0.900000 0.000000
vt 4.500000 -0.900000 0.000000
vt 4.500000 0.900000 0.000000
vt 4.400000 0.900000 0.000000
vt -4.500000 3.000000 0.000000
vt -4.500000 -3.000000 0.000000
vt 4.500000 -3.000000 0.000000
vt 4.500000 3.000000 0.000000
vt -4.500000 -3.000000 0.000000
vt 4.500000 -3.000000 0.000000
vt 4.500000 -0.900000 0.000000
vt 4.400000 -0.900000 0.000000
vt 4.400000 -2.900000 0.000000
vt -4.400000 -2.900000 0.000000
vt -4.400000 2.900000 0.000000
vt -4.300000 2.900000 0.000000
vt -4.300000 3.000000 0.000000
vt -4.500000 3.000000 0.000000
vt -0.100000 0.150000 0.000000
vt -0.000000 0.150000 0.000000
vt -0.000000 2.000000 0.000000
vt -0.100000 2.000000 0.000000
vt -0.200000 0.150000 0.000000
vt -0.100000 0.150000 0.000000
vt -0.100000 2.000000 0.000000
vt -0.200000 2.000000 0.000000
vt 2.000000 0.150000 0.000000
vt 2.000000 2.000000 0.000000
vt 0.000000 2.000000 0.000000
vt 0.000000 0.150000 0.000000
vt 0.000000 2.000000 0.000000
vt 0.000000 0.000000 0.000000
vt 6.000000 0.000000 0.000000
vt 6.000000 2.000000 0.000000
vt 3.900000 2.000000 0.000000
vt 3.900000 0.150000 0.000000
vt 2.100000 0.150000 0.000000
vt 2.100000 2.000000 0.000000
vt -0.800000 2.900000 0.000000
vt 4.400000 2.900000 0.000000
vt 4.400000 0.900000 0.000000
vt 4.500000 0.900000 0.000000
vt 4.500000 3.000000 0.000000
vt -0.800000 3.000000 0.000000
vt -0.100000 0.150000 0.000000
vt -0.000000 0.150000 0.000000
vt -0.000000 2.000000 0.000000
vt -0.100000 2.000000 0.000000
vt -0.200000 0.150000 0.000000
vt -0.100000 0.150000 0.000000
vt -0.100000 2.000000 0.000000
vt -0.200000 2.000000 0.000000
vt 0.100000 0.150000 0.000000
vt 0.100000 2.000000 0.000000
vt 0.000000 2.000000 0.000000
vt 0.000000 0.150000 0.000000
vt 5.300000 0.150000 0.000000
vt 5.300000 2.000000 0.000000
vt 0.000000 2.000000 0.000000
vt 0.000000 0.000000 0.000000
vt 9.000000 0.000000 0.000000
vt 9.000000 2.000000 0.000000
vt 8.800000 2.000000 0.000000
vt 8.800000 0.150000 0.000000
vt 6.000000 0.000000 0.000000
vt 6.000000 2.000000 0.000000
vt 0.000000 2.000000 0.000000
vt 0.000000 0.000000 0.000000
vt 3.800000 2.000000 0.000000
vt 3.800000 0.150000 0.000000
vt 5.800000 0.150000 0.000000
vt 5.800000 2.000000 0.000000
vt 0.000000 0.150000 0.000000
vt 8.800000 0.150000 0.000000
vt 8.800000 2.000000 0.000000
vt 0.000000 2.000000 0.000000
vt 3.600000 2.000000 0.000000
vt 3.600000 0.150000 0.000000
vt 8.800000 0.150000 0.000000
vt 8.800000 2.000000 0.000000
vt 0.000000 0.150000 0.000000
vt 5.800000 0.150000 0.000000
vt 5.800000 2.000000 0.000000
vt 0.000000 2.000000 0.000000
vt 0.000000 0.000000 0.000000
vt 9.000000 0.000000 0.000000
vt 9.000000 2.000000 0.000000
vt 0.000000 2.000000 0.000000
vn 0.000000 0.100000 0.000000
vn 0.000000 0.100000 0.000000
vn 0.000000 0.100000 0.000000
vn 0.000000 0.100000 0.000000
vn 0.000000 0.100000 0.000000
vn 0.000000 0.100000 0.000000
vn 0.000000 0.100000 0.000000
vn 0.000000 0.100000 0.000000
vn 0.000000 0.100000 0.000000
vn 0.000000 0.100000 0.000000
vn 0.000000 0.100000 0.000000
vn 0.000000 0.100000 0.000000
vn 0.000000 -0.100000 0.000000
vn 0.000000 -0.100000 0.000000
vn 0.000000 -0.100000 0.000000
vn 0.000000 -0.100000 0.000000
vn 0.000000 0.100000 0.000000
vn 0.000000 0.100000 0.000000
vn 0.000000 0.100000 0.000000
vn 0.000000 0.100000 0.000000
vn 0.000000 0.100000 0.000000
vn 0.000000 0.100000 0.000000
vn 0.000000 0.100000 0.000000
vn 0.000000 0.100000 0.000000
vn 0.000000 0.100000 0.000000
vn 0.000000 0.100000 0.000000
vn 0.100000 0.000000 0.000000
vn 0.100000 0.000000 0.000000
vn 0.100000 0.000000 0.000000
vn 0.100000 0.000000 0.000000
vn -0.100000 0.000000 0.000000
vn -0.100000 0.000000 0.000000
vn -0.100000 0.000000 0.000000
vn -0.100000 0.000000 0.000000
vn 0.000000 0.000000 -0.100000
vn 0.000000 0.000000 -0.100000
vn 0.000000 0.000000 -0.100000
vn 0.000000 0.000000 -0.100000
vn 0.000000 0.000000 0.100000
vn 0.000000 0.000000 0.100000
vn 0.000000 0.000000 0.100000
vn 0.000000 0.000000 0.100000
vn 0.000000 0.000000 0.100000
vn 0.000000 0.000000 0.100000
vn 0.000000 0.000000 0.100000
vn 0.000000 0.000000 0.100000
vn 0.000000 0.100000 0.000000
vn 0.000000 0.100000 0.000000
vn 0.000000 0.100000 0.000000
vn 0.000000 0.100000 0.000000
vn 0.000000 0.100000 0.000000
vn 0.000000 0.100000 0.000000
vn 0.000000 0.000000 -0.100000
vn 0.000000 0.000000 -0.100000
vn 0.000000 0.000000 -0.100000
vn 0.000000 0.000000 -0.100000
vn 0.000000 0.000000 0.100000
vn 0.000000 0.000000 0.100000
vn 0.000000 0.000000 0.100000
vn 0.000000 0.000000 0.100000
vn -0.100000 0.000000 0.000000
vn -0.100000 0.000000 0.000000
vn -0.100000 0.000000 0.000000
vn -0.100000 0.000000 0.000000
vn 0.100000 0.000000 0.000000
vn 0.100000 0.000000 0.000000
vn 0.100000 0.000000 0.000000
vn 0.100000 0.000000 0.000000
vn 0.100000 0.000000 0.000000
vn 0.100000 0.000000 0.000000
vn 0.100000 0.000000 0.000000
vn 0.100000 0.000000 0.000000
vn 0.000000 0.000000 -0.100000
vn 0.000000 0.000000 -0.100000
vn 0.000000 0.000000 -0.100000
vn 0.000000 0.000000 -0.100000
vn 0.000000 0.000000 -0.100000
vn 0.000000 0.000000 -0.100000
vn 0.000000 0.000000 -0.100000
vn 0.000000 0.000000 -0.100000
vn 0.100000 0.000000 0.000000
vn 0.100000 0.000000 0.000000
vn 0.100000 0.000000 0.000000
vn 0.100000 0.000000 0.000000
vn -0.100000 0.000000 0.000000
vn -0.100000 0.000000 0.000000
vn -0.100000 0.000000 0.000000
vn -0.100000 0.000000 0.000000
vn 0.000000 0.000000 0.100000
vn 0.000000 0.000000 0.100000
vn 0.000000 0.000000 0.100000
vn 0.000000 0.000000 0.100000
vn -0.100000 0.000000 0.000000
vn -0.100000 0.000000 0.000000
vn -0.100000 0.000000 0.000000
vn -0.100000 0.000000 0.000000
usemtl 191,191,191
f 20/1/1 19/2/2 13/12/12
f 13/12/12 19/2/2 9/9/9
f 13/12/12 9/9/9 10/10/10
f 28/3/3 27/4/4 19/2/2
f 19/2/2 27/4/4 18/5/5
f 19/2/2 18/5/5 5/7/7
f 5/7/7 18/5/5 17/6/6
f 6/8/8 9/9/9 5/7/7
f 5/7/7 9/9/9 19/2/2
f 10/10/10 14/11/11 13/12/12
f 2/14/14 1/15/15 26/13/13
f 26/13/13 1/15/15 25/16/16
f 4/18/18 7/22/22 3/17/17
f 3/17/17 7/22/22 21/23/23
f 3/17/17 21/23/23 29/26/26
f 29/26/26 21/23/23 30/25/25
f 30/25/25 21/23/23 22/24/24
f 7/22/22 4/18/18 8/21/21
f 8/21/21 4/18/18 12/19/19
f 8/21/21 12/19/19 11/20/20
f 10/27/27 9/28/28 12/30/30
f 12/30/30 9/28/28 11/29/29
f 13/31/31 14/32/32 15/34/34
f 15/34/34 14/32/32 16/33/33
f 15/36/36 24/37/37 13/35/35
f 13/35/35 24/37/37 20/38/38
f 12/46/46 4/39/39 10/45/45
f 10/45/45 4/39/39 2/40/40
f 10/45/45 2/40/40 26/41/41
f 10/45/45 26/41/41 14/44/44
f 14/44/44 26/41/41 32/42/42
f 14/44/44 32/42/42 16/43/43
f 23/47/47 24/48/48 31/52/52
f 31/52/52 24/48/48 32/51/51
f 32/51/51 24/48/48 16/50/50
f 16/50/50 24/48/48 15/49/49
f 28/53/53 19/54/54 31/56/56
f 31/56/56 19/54/54 23/55/55
f 18/57/57 27/58/58 22/60/60
f 22/60/60 27/58/58 30/59/59
f 22/62/62 21/63/63 18/61/61
f 18/61/61 21/63/63 17/64/64
f 31/66/66 32/67/67 28/65/65
f 28/65/65 32/67/67 26/68/68
f 28/65/65 26/68/68 25/69/69
f 28/65/65 25/69/69 27/72/72
f 27/72/72 25/69/69 29/70/70
f 27/72/72 29/70/70 30/71/71
f 3/74/74 29/75/75 1/73/73
f 1/73/73 29/75/75 25/76/76
f 9/78/78 6/79/79 11/77/77
f 11/77/77 6/79/79 8/80/80
f 6/81/81 5/82/82 8/84/84
f 8/84/84 5/82/82 7/83/83
f 19/86/86 20/87/87 23/85/85
f 23/85/85 20/87/87 24/88/88
f 5/89/89 17/90/90 7/92/92
f 7/92/92 17/90/90 21/91/91
f 1/93/93 2/94/94 3/96/96
f 3/96/96 2/94/94 4/95/95
# 32 vertices
# 96 texture params
# 96 normals
# 60 facets

# 1 groups
