# WaveFront *.obj file (generated by Autodesk ATF)

mtllib Inside.mtl

g Inside

v -32.500000 0.000000 -45.999999
v -32.500000 0.000000 45.999999
v -32.500000 30.000000 -45.999999
v -32.500000 30.000000 45.999999
v -30.999999 1.500000 -44.499998
v -30.999999 1.500000 44.499998
v -30.999999 30.000000 -44.499998
v -30.999999 30.000000 44.499998
v 30.999999 1.500000 -44.499998
v 30.999999 1.500000 -32.500000
v 30.999999 1.500000 -18.500000
v 30.999999 1.500000 44.499998
v 30.999999 30.000000 -44.499998
v 30.999999 30.000000 -32.500000
v 30.999999 30.000000 -18.500000
v 30.999999 30.000000 44.499998
v 32.500000 0.000000 -45.999999
v 32.500000 0.000000 45.999999
v 32.500000 1.500000 -32.500000
v 32.500000 1.500000 -18.500000
v 32.500000 30.000000 -45.999999
v 32.500000 30.000000 -32.500000
v 32.500000 30.000000 -18.500000
v 32.500000 30.000000 45.999999
vt 0.000000 0.000000 0.000000
vt 9.200000 0.000000 0.000000
vt 9.200000 3.000000 0.000000
vt 7.850000 3.000000 0.000000
vt 7.850000 0.150000 0.000000
vt 6.450000 0.150000 0.000000
vt 6.450000 3.000000 0.000000
vt 0.000000 3.000000 0.000000
vt -4.450000 3.100000 0.000000
vt -4.450000 -3.100000 0.000000
vt 4.450000 -3.100000 0.000000
vt 4.450000 3.100000 0.000000
vt -1.850000 3.100000 0.000000
vt -1.850000 3.250000 0.000000
vt -3.250000 3.250000 0.000000
vt -3.250000 3.100000 0.000000
vt 4.600000 3.250000 0.000000
vt -4.600000 3.250000 0.000000
vt -4.600000 -3.250000 0.000000
vt 4.600000 -3.250000 0.000000
vt -0.000000 3.000000 0.000000
vt -0.150000 3.000000 0.000000
vt -0.150000 0.150000 0.000000
vt -0.000000 0.150000 0.000000
vt -0.150000 3.000000 0.000000
vt -0.300000 3.000000 0.000000
vt -0.300000 0.150000 0.000000
vt -0.150000 0.150000 0.000000
vt 1.200000 0.150000 0.000000
vt 1.200000 3.000000 0.000000
vt 0.000000 3.000000 0.000000
vt 0.000000 0.150000 0.000000
vt 2.600000 3.000000 0.000000
vt 2.600000 0.150000 0.000000
vt 8.900000 0.150000 0.000000
vt 8.900000 3.000000 0.000000
vt 0.000000 0.150000 0.000000
vt 6.200000 0.150000 0.000000
vt 6.200000 3.000000 0.000000
vt 0.000000 3.000000 0.000000
vt 0.000000 0.150000 0.000000
vt 8.900000 0.150000 0.000000
vt 8.900000 3.000000 0.000000
vt 0.000000 3.000000 0.000000
vt 0.000000 0.150000 0.000000
vt 6.200000 0.150000 0.000000
vt 6.200000 3.000000 0.000000
vt 0.000000 3.000000 0.000000
vt 0.000000 0.000000 0.000000
vt 9.200000 0.000000 0.000000
vt 9.200000 3.000000 0.000000
vt 0.000000 3.000000 0.000000
vt 0.000000 0.000000 0.000000
vt 6.500000 0.000000 0.000000
vt 6.500000 3.000000 0.000000
vt 0.000000 3.000000 0.000000
vt 0.000000 0.000000 0.000000
vt 6.500000 0.000000 0.000000
vt 6.500000 3.000000 0.000000
vt 0.000000 3.000000 0.000000
vt -1.850000 3.250000 0.000000
vt -1.850000 3.100000 0.000000
vt 4.450000 3.100000 0.000000
vt 4.450000 -3.100000 0.000000
vt -4.450000 -3.100000 0.000000
vt -4.450000 3.100000 0.000000
vt -3.250000 3.100000 0.000000
vt -3.250000 3.250000 0.000000
vt -4.600000 3.250000 0.000000
vt -4.600000 -3.250000 0.000000
vt 4.600000 -3.250000 0.000000
vt 4.600000 3.250000 0.000000
vn 0.100000 0.000000 0.000000
vn 0.100000 0.000000 0.000000
vn 0.100000 0.000000 0.000000
vn 0.100000 0.000000 0.000000
vn 0.100000 0.000000 0.000000
vn 0.100000 0.000000 0.000000
vn 0.100000 0.000000 0.000000
vn 0.100000 0.000000 0.000000
vn 0.000000 0.100000 0.000000
vn 0.000000 0.100000 0.000000
vn 0.000000 0.100000 0.000000
vn 0.000000 0.100000 0.000000
vn 0.000000 0.100000 0.000000
vn 0.000000 0.100000 0.000000
vn 0.000000 0.100000 0.000000
vn 0.000000 0.100000 0.000000
vn 0.000000 -0.100000 0.000000
vn 0.000000 -0.100000 0.000000
vn 0.000000 -0.100000 0.000000
vn 0.000000 -0.100000 0.000000
vn 0.000000 0.000000 -0.100000
vn 0.000000 0.000000 -0.100000
vn 0.000000 0.000000 -0.100000
vn 0.000000 0.000000 -0.100000
vn 0.000000 0.000000 0.100000
vn 0.000000 0.000000 0.100000
vn 0.000000 0.000000 0.100000
vn 0.000000 0.000000 0.100000
vn -0.100000 0.000000 0.000000
vn -0.100000 0.000000 0.000000
vn -0.100000 0.000000 0.000000
vn -0.100000 0.000000 0.000000
vn -0.100000 0.000000 0.000000
vn -0.100000 0.000000 0.000000
vn -0.100000 0.000000 0.000000
vn -0.100000 0.000000 0.000000
vn 0.000000 0.000000 -0.100000
vn 0.000000 0.000000 -0.100000
vn 0.000000 0.000000 -0.100000
vn 0.000000 0.000000 -0.100000
vn 0.100000 0.000000 0.000000
vn 0.100000 0.000000 0.000000
vn 0.100000 0.000000 0.000000
vn 0.100000 0.000000 0.000000
vn 0.000000 0.000000 0.100000
vn 0.000000 0.000000 0.100000
vn 0.000000 0.000000 0.100000
vn 0.000000 0.000000 0.100000
vn -0.100000 0.000000 0.000000
vn -0.100000 0.000000 0.000000
vn -0.100000 0.000000 0.000000
vn -0.100000 0.000000 0.000000
vn 0.000000 0.000000 -0.100000
vn 0.000000 0.000000 -0.100000
vn 0.000000 0.000000 -0.100000
vn 0.000000 0.000000 -0.100000
vn 0.000000 0.000000 0.100000
vn 0.000000 0.000000 0.100000
vn 0.000000 0.000000 0.100000
vn 0.000000 0.000000 0.100000
vn 0.000000 0.100000 0.000000
vn 0.000000 0.100000 0.000000
vn 0.000000 0.100000 0.000000
vn 0.000000 0.100000 0.000000
vn 0.000000 0.100000 0.000000
vn 0.000000 0.100000 0.000000
vn 0.000000 0.100000 0.000000
vn 0.000000 0.100000 0.000000
vn 0.000000 0.100000 0.000000
vn 0.000000 0.100000 0.000000
vn 0.000000 0.100000 0.000000
vn 0.000000 0.100000 0.000000
usemtl 191,191,191
f 24/8/8 18/1/1 20/6/6
f 20/6/6 18/1/1 17/2/2
f 20/6/6 17/2/2 19/5/5
f 19/5/5 17/2/2 21/3/3
f 19/5/5 21/3/3 22/4/4
f 20/6/6 23/7/7 24/8/8
f 9/9/9 5/10/10 10/16/16
f 10/16/16 5/10/10 11/13/13
f 10/16/16 11/13/13 19/15/15
f 19/15/15 11/13/13 20/14/14
f 5/10/10 6/11/11 11/13/13
f 11/13/13 6/11/11 12/12/12
f 17/17/17 18/18/18 1/20/20
f 1/20/20 18/18/18 2/19/19
f 15/21/21 23/22/22 11/24/24
f 11/24/24 23/22/22 20/23/23
f 22/25/25 14/26/26 19/28/28
f 19/28/28 14/26/26 10/27/27
f 14/30/30 13/31/31 10/29/29
f 10/29/29 13/31/31 9/32/32
f 11/34/34 12/35/35 15/33/33
f 15/33/33 12/35/35 16/36/36
f 12/37/37 6/38/38 16/40/40
f 16/40/40 6/38/38 8/39/39
f 6/41/41 5/42/42 8/44/44
f 8/44/44 5/42/42 7/43/43
f 5/45/45 9/46/46 7/48/48
f 7/48/48 9/46/46 13/47/47
f 1/49/49 2/50/50 3/52/52
f 3/52/52 2/50/50 4/51/51
f 17/53/53 1/54/54 21/56/56
f 21/56/56 1/54/54 3/55/55
f 2/57/57 18/58/58 4/60/60
f 4/60/60 18/58/58 24/59/59
f 15/62/62 16/63/63 23/61/61
f 23/61/61 16/63/63 24/72/72
f 24/72/72 16/63/63 4/71/71
f 4/71/71 16/63/63 8/64/64
f 4/71/71 8/64/64 7/65/65
f 4/71/71 7/65/65 3/70/70
f 3/70/70 7/65/65 13/66/66
f 3/70/70 13/66/66 21/69/69
f 21/69/69 13/66/66 22/68/68
f 22/68/68 13/66/66 14/67/67
# 24 vertices
# 72 texture params
# 72 normals
# 44 facets

# 1 groups
