# WaveFront *.obj file (generated by Autodesk ATF)

mtllib Button.mtl

g Button

v -5.250000 0.000000 -68.418956
v -5.250000 15.000000 -68.418956
v -5.208602 0.000000 -69.076958
v -5.208602 0.000000 -67.760959
v -5.208602 15.000000 -69.076958
v -5.208602 15.000000 -67.760959
v -5.085062 0.000000 -69.724579
v -5.085062 0.000000 -67.113338
v -5.085062 15.000000 -69.724579
v -5.085062 15.000000 -67.113338
v -4.881327 0.000000 -70.351610
v -4.881327 0.000000 -66.486301
v -4.881327 15.000000 -70.351610
v -4.881327 15.000000 -66.486301
v -4.600610 0.000000 -70.948162
v -4.600610 0.000000 -65.889750
v -4.600610 15.000000 -70.948162
v -4.600610 15.000000 -65.889750
v -4.247339 0.000000 -71.504831
v -4.247339 0.000000 -65.333085
v -4.247339 15.000000 -71.504831
v -4.247339 15.000000 -65.333085
v -3.827085 0.000000 -72.012830
v -3.827085 0.000000 -64.825087
v -3.827085 15.000000 -72.012830
v -3.827085 15.000000 -64.825087
v -3.346476 0.000000 -72.464151
v -3.346476 0.000000 -64.373765
v -3.346476 15.000000 -72.464151
v -3.346476 15.000000 -64.373765
v -2.813091 0.000000 -72.851677
v -2.813091 0.000000 -63.986235
v -2.813091 15.000000 -72.851677
v -2.813091 15.000000 -63.986235
v -2.235341 0.000000 -73.169298
v -2.235341 0.000000 -63.668613
v -2.235341 15.000000 -73.169298
v -2.235341 15.000000 -63.668613
v -1.622339 0.000000 -73.412004
v -1.622339 0.000000 -63.425913
v -1.622339 15.000000 -73.412004
v -1.622339 15.000000 -63.425913
v -0.983752 0.000000 -73.575964
v -0.983752 0.000000 -63.261948
v -0.983752 15.000000 -73.575964
v -0.983752 15.000000 -63.261948
v -0.329650 0.000000 -73.658600
v -0.329650 0.000000 -63.179317
v -0.329650 15.000000 -73.658600
v -0.329650 15.000000 -63.179317
v 0.329650 0.000000 -73.658600
v 0.329650 0.000000 -63.179317
v 0.329650 15.000000 -73.658600
v 0.329650 15.000000 -63.179317
v 0.983752 0.000000 -73.575964
v 0.983752 0.000000 -63.261948
v 0.983752 15.000000 -73.575964
v 0.983752 15.000000 -63.261948
v 1.622339 0.000000 -73.412004
v 1.622339 0.000000 -63.425913
v 1.622339 15.000000 -73.412004
v 1.622339 15.000000 -63.425913
v 2.235341 0.000000 -73.169298
v 2.235341 0.000000 -63.668613
v 2.235341 15.000000 -73.169298
v 2.235341 15.000000 -63.668613
v 2.813091 0.000000 -72.851677
v 2.813091 0.000000 -63.986235
v 2.813091 15.000000 -72.851677
v 2.813091 15.000000 -63.986235
v 3.346476 0.000000 -72.464151
v 3.346476 0.000000 -64.373765
v 3.346476 15.000000 -72.464151
v 3.346476 15.000000 -64.373765
v 3.827085 0.000000 -72.012830
v 3.827085 0.000000 -64.825087
v 3.827085 15.000000 -72.012830
v 3.827085 15.000000 -64.825087
v 4.247339 0.000000 -71.504831
v 4.247339 0.000000 -65.333085
v 4.247339 15.000000 -71.504831
v 4.247339 15.000000 -65.333085
v 4.600610 0.000000 -70.948162
v 4.600610 0.000000 -65.889750
v 4.600610 15.000000 -70.948162
v 4.600610 15.000000 -65.889750
v 4.881327 0.000000 -70.351610
v 4.881327 0.000000 -66.486301
v 4.881327 15.000000 -70.351610
v 4.881327 15.000000 -66.486301
v 5.085062 0.000000 -69.724579
v 5.085062 0.000000 -67.113338
v 5.085062 15.000000 -69.724579
v 5.085062 15.000000 -67.113338
v 5.208602 0.000000 -69.076958
v 5.208602 0.000000 -67.760959
v 5.208602 15.000000 -69.076958
v 5.208602 15.000000 -67.760959
v 5.250000 0.000000 -68.418956
v 5.250000 15.000000 -68.418956
vt -1.500000 0.000000 0.000000
vt -1.500000 -0.065973 0.000000
vt -1.500000 -0.131947 0.000000
vt -1.500000 -0.197920 0.000000
vt -1.500000 -0.263894 0.000000
vt -1.500000 -0.329867 0.000000
vt -1.500000 -0.395841 0.000000
vt -1.500000 -0.461814 0.000000
vt -1.500000 -0.527788 0.000000
vt -1.500000 -0.593761 0.000000
vt -1.500000 -0.659734 0.000000
vt -1.500000 -0.725708 0.000000
vt -1.500000 -0.791681 0.000000
vt -1.500000 -0.857655 0.000000
vt -1.500000 -0.923628 0.000000
vt -1.500000 -0.989602 0.000000
vt -1.500000 -1.055575 0.000000
vt -1.500000 -1.121549 0.000000
vt -1.500000 -1.187522 0.000000
vt -1.500000 -1.253495 0.000000
vt -1.500000 -1.319469 0.000000
vt -1.500000 -1.385442 0.000000
vt -1.500000 -1.451416 0.000000
vt -1.500000 -1.517389 0.000000
vt -1.500000 -1.583363 0.000000
vt -1.500000 1.649336 0.000000
vt -1.500000 1.583363 0.000000
vt -1.500000 1.517389 0.000000
vt -1.500000 1.451416 0.000000
vt -1.500000 1.385442 0.000000
vt -1.500000 1.319469 0.000000
vt -1.500000 1.253495 0.000000
vt -1.500000 1.187522 0.000000
vt -1.500000 1.121549 0.000000
vt -1.500000 1.055575 0.000000
vt -1.500000 0.989602 0.000000
vt -1.500000 0.923628 0.000000
vt -1.500000 0.857655 0.000000
vt -1.500000 0.791681 0.000000
vt -1.500000 0.725708 0.000000
vt -1.500000 0.659734 0.000000
vt -1.500000 0.593761 0.000000
vt -1.500000 0.527788 0.000000
vt -1.500000 0.461814 0.000000
vt -1.500000 0.395841 0.000000
vt -1.500000 0.329867 0.000000
vt -1.500000 0.263894 0.000000
vt -1.500000 0.197920 0.000000
vt -1.500000 0.131947 0.000000
vt -1.500000 0.065973 0.000000
vt -0.000000 0.000000 0.000000
vt -0.000000 0.065973 0.000000
vt -0.000000 0.131947 0.000000
vt -0.000000 0.197920 0.000000
vt -0.000000 0.263894 0.000000
vt -0.000000 0.329867 0.000000
vt -0.000000 0.395841 0.000000
vt -0.000000 0.461814 0.000000
vt -0.000000 0.527788 0.000000
vt -0.000000 0.593761 0.000000
vt -0.000000 0.659734 0.000000
vt -0.000000 0.725708 0.000000
vt -0.000000 0.791681 0.000000
vt -0.000000 0.857655 0.000000
vt -0.000000 0.923628 0.000000
vt -0.000000 0.989602 0.000000
vt -0.000000 1.055575 0.000000
vt -0.000000 1.121549 0.000000
vt -0.000000 1.187522 0.000000
vt -0.000000 1.253495 0.000000
vt -0.000000 1.319469 0.000000
vt -0.000000 1.385442 0.000000
vt -0.000000 1.451416 0.000000
vt -0.000000 1.517389 0.000000
vt -0.000000 1.583363 0.000000
vt -0.000000 -1.649336 0.000000
vt -0.000000 -1.583363 0.000000
vt -0.000000 -1.517389 0.000000
vt -0.000000 -1.451416 0.000000
vt -0.000000 -1.385442 0.000000
vt -0.000000 -1.319469 0.000000
vt -0.000000 -1.253495 0.000000
vt -0.000000 -1.187522 0.000000
vt -0.000000 -1.121549 0.000000
vt -0.000000 -1.055575 0.000000
vt -0.000000 -0.989602 0.000000
vt -0.000000 -0.923628 0.000000
vt -0.000000 -0.857655 0.000000
vt -0.000000 -0.791681 0.000000
vt -0.000000 -0.725708 0.000000
vt -0.000000 -0.659734 0.000000
vt -0.000000 -0.593761 0.000000
vt -0.000000 -0.527788 0.000000
vt -0.000000 -0.461814 0.000000
vt -0.000000 -0.395841 0.000000
vt -0.000000 -0.329867 0.000000
vt -0.000000 -0.263894 0.000000
vt -0.000000 -0.197920 0.000000
vt -0.000000 -0.131947 0.000000
vt -0.000000 -0.065973 0.000000
vt -0.000000 1.649336 0.000000
vt -1.500000 -1.649336 0.000000
vt 0.000000 -0.525000 0.000000
vt 0.065800 -0.520860 0.000000
vt 0.130562 -0.508506 0.000000
vt 0.193265 -0.488133 0.000000
vt 0.252921 -0.460061 0.000000
vt 0.308587 -0.424734 0.000000
vt 0.359387 -0.382709 0.000000
vt 0.404519 -0.334648 0.000000
vt 0.443272 -0.281309 0.000000
vt 0.475034 -0.223534 0.000000
vt 0.499305 -0.162234 0.000000
vt 0.515701 -0.098375 0.000000
vt 0.523964 -0.032965 0.000000
vt 0.523964 0.032965 0.000000
vt 0.515701 0.098375 0.000000
vt 0.499305 0.162234 0.000000
vt 0.475034 0.223534 0.000000
vt 0.443272 0.281309 0.000000
vt 0.404519 0.334648 0.000000
vt 0.359387 0.382709 0.000000
vt 0.308587 0.424734 0.000000
vt 0.252921 0.460061 0.000000
vt 0.193265 0.488133 0.000000
vt 0.130562 0.508506 0.000000
vt 0.065800 0.520860 0.000000
vt 0.000000 0.525000 0.000000
vt -0.065800 0.520860 0.000000
vt -0.130562 0.508506 0.000000
vt -0.193265 0.488133 0.000000
vt -0.252921 0.460061 0.000000
vt -0.308587 0.424734 0.000000
vt -0.359387 0.382709 0.000000
vt -0.404519 0.334648 0.000000
vt -0.443272 0.281309 0.000000
vt -0.475034 0.223534 0.000000
vt -0.499305 0.162234 0.000000
vt -0.515701 0.098375 0.000000
vt -0.523964 0.032965 0.000000
vt -0.523964 -0.032965 0.000000
vt -0.515701 -0.098375 0.000000
vt -0.499305 -0.162234 0.000000
vt -0.475034 -0.223534 0.000000
vt -0.443272 -0.281309 0.000000
vt -0.404519 -0.334648 0.000000
vt -0.359387 -0.382709 0.000000
vt -0.308587 -0.424734 0.000000
vt -0.252921 -0.460061 0.000000
vt -0.193265 -0.488133 0.000000
vt -0.130562 -0.508506 0.000000
vt -0.065800 -0.520860 0.000000
vt -0.000000 -0.525000 0.000000
vt 0.065800 -0.520860 0.000000
vt 0.130562 -0.508506 0.000000
vt 0.193265 -0.488133 0.000000
vt 0.252921 -0.460061 0.000000
vt 0.308587 -0.424734 0.000000
vt 0.359387 -0.382709 0.000000
vt 0.404519 -0.334648 0.000000
vt 0.443272 -0.281309 0.000000
vt 0.475034 -0.223534 0.000000
vt 0.499305 -0.162234 0.000000
vt 0.515701 -0.098375 0.000000
vt 0.523964 -0.032965 0.000000
vt 0.523964 0.032965 0.000000
vt 0.515701 0.098375 0.000000
vt 0.499305 0.162234 0.000000
vt 0.475034 0.223534 0.000000
vt 0.443272 0.281309 0.000000
vt 0.404519 0.334648 0.000000
vt 0.359387 0.382709 0.000000
vt 0.308587 0.424734 0.000000
vt 0.252921 0.460061 0.000000
vt 0.193265 0.488133 0.000000
vt 0.130562 0.508506 0.000000
vt 0.065800 0.520860 0.000000
vt -0.000000 0.525000 0.000000
vt -0.065800 0.520860 0.000000
vt -0.130562 0.508506 0.000000
vt -0.193265 0.488133 0.000000
vt -0.252921 0.460061 0.000000
vt -0.308587 0.424734 0.000000
vt -0.359387 0.382709 0.000000
vt -0.404519 0.334648 0.000000
vt -0.443272 0.281309 0.000000
vt -0.475034 0.223534 0.000000
vt -0.499305 0.162234 0.000000
vt -0.515701 0.098375 0.000000
vt -0.523964 0.032965 0.000000
vt -0.523964 -0.032965 0.000000
vt -0.515701 -0.098375 0.000000
vt -0.499305 -0.162234 0.000000
vt -0.475034 -0.223534 0.000000
vt -0.443272 -0.281309 0.000000
vt -0.404519 -0.334648 0.000000
vt -0.359387 -0.382709 0.000000
vt -0.308587 -0.424734 0.000000
vt -0.252921 -0.460061 0.000000
vt -0.193265 -0.488133 0.000000
vt -0.130562 -0.508506 0.000000
vt -0.065800 -0.520860 0.000000
vn -0.100000 0.000000 0.000000
vn -0.099211 0.000000 -0.012533
vn -0.096858 0.000000 -0.024869
vn -0.092978 0.000000 -0.036812
vn -0.087631 0.000000 -0.048175
vn -0.080902 0.000000 -0.058779
vn -0.072897 0.000000 -0.068455
vn -0.063742 0.000000 -0.077051
vn -0.053583 0.000000 -0.084433
vn -0.042578 0.000000 -0.090483
vn -0.030902 0.000000 -0.095106
vn -0.018738 0.000000 -0.098229
vn -0.006279 0.000000 -0.099803
vn 0.006279 0.000000 -0.099803
vn 0.018738 0.000000 -0.098229
vn 0.030902 0.000000 -0.095106
vn 0.042578 0.000000 -0.090483
vn 0.053583 0.000000 -0.084433
vn 0.063742 0.000000 -0.077051
vn 0.072897 0.000000 -0.068455
vn 0.080902 0.000000 -0.058779
vn 0.087631 0.000000 -0.048175
vn 0.092978 0.000000 -0.036812
vn 0.096858 0.000000 -0.024869
vn 0.099211 0.000000 -0.012533
vn 0.100000 0.000000 0.000000
vn 0.099211 0.000000 0.012533
vn 0.096858 0.000000 0.024869
vn 0.092978 0.000000 0.036812
vn 0.087631 0.000000 0.048175
vn 0.080902 0.000000 0.058779
vn 0.072897 0.000000 0.068455
vn 0.063742 0.000000 0.077051
vn 0.053583 0.000000 0.084433
vn 0.042578 0.000000 0.090483
vn 0.030902 0.000000 0.095106
vn 0.018738 0.000000 0.098229
vn 0.006279 0.000000 0.099803
vn -0.006279 0.000000 0.099803
vn -0.018738 0.000000 0.098229
vn -0.030902 0.000000 0.095106
vn -0.042578 0.000000 0.090483
vn -0.053583 0.000000 0.084433
vn -0.063742 0.000000 0.077051
vn -0.072897 0.000000 0.068455
vn -0.080902 0.000000 0.058779
vn -0.087631 0.000000 0.048175
vn -0.092978 0.000000 0.036812
vn -0.096858 0.000000 0.024869
vn -0.099211 0.000000 0.012533
vn -0.100000 0.000000 0.000000
vn -0.099211 0.000000 0.012533
vn -0.096858 0.000000 0.024869
vn -0.092978 0.000000 0.036812
vn -0.087631 0.000000 0.048175
vn -0.080902 0.000000 0.058779
vn -0.072897 0.000000 0.068455
vn -0.063742 0.000000 0.077051
vn -0.053583 0.000000 0.084433
vn -0.042578 0.000000 0.090483
vn -0.030902 0.000000 0.095106
vn -0.018738 0.000000 0.098229
vn -0.006279 0.000000 0.099803
vn 0.006279 0.000000 0.099803
vn 0.018738 0.000000 0.098229
vn 0.030902 0.000000 0.095106
vn 0.042578 0.000000 0.090483
vn 0.053583 0.000000 0.084433
vn 0.063742 0.000000 0.077051
vn 0.072897 0.000000 0.068455
vn 0.080902 0.000000 0.058779
vn 0.087631 0.000000 0.048175
vn 0.092978 0.000000 0.036812
vn 0.096858 0.000000 0.024869
vn 0.099211 0.000000 0.012533
vn 0.100000 0.000000 0.000000
vn 0.099211 0.000000 -0.012533
vn 0.096858 0.000000 -0.024869
vn 0.092978 0.000000 -0.036812
vn 0.087631 0.000000 -0.048175
vn 0.080902 0.000000 -0.058779
vn 0.072897 0.000000 -0.068455
vn 0.063742 0.000000 -0.077051
vn 0.053583 0.000000 -0.084433
vn 0.042578 0.000000 -0.090483
vn 0.030902 0.000000 -0.095106
vn 0.018738 0.000000 -0.098229
vn 0.006279 0.000000 -0.099803
vn -0.006279 0.000000 -0.099803
vn -0.018738 0.000000 -0.098229
vn -0.030902 0.000000 -0.095106
vn -0.042578 0.000000 -0.090483
vn -0.053583 0.000000 -0.084433
vn -0.063742 0.000000 -0.077051
vn -0.072897 0.000000 -0.068455
vn -0.080902 0.000000 -0.058779
vn -0.087631 0.000000 -0.048175
vn -0.092978 0.000000 -0.036812
vn -0.096858 0.000000 -0.024869
vn -0.099211 0.000000 -0.012533
vn 0.100000 0.000000 0.000000
vn 0.100000 0.000000 0.000000
vn 0.000000 0.100000 0.000000
vn 0.000000 0.100000 0.000000
vn 0.000000 0.100000 0.000000
vn 0.000000 0.100000 0.000000
vn 0.000000 0.100000 0.000000
vn 0.000000 0.100000 0.000000
vn 0.000000 0.100000 0.000000
vn 0.000000 0.100000 0.000000
vn 0.000000 0.100000 0.000000
vn 0.000000 0.100000 0.000000
vn 0.000000 0.100000 0.000000
vn 0.000000 0.100000 0.000000
vn 0.000000 0.100000 0.000000
vn 0.000000 0.100000 0.000000
vn 0.000000 0.100000 0.000000
vn 0.000000 0.100000 0.000000
vn 0.000000 0.100000 0.000000
vn 0.000000 0.100000 0.000000
vn 0.000000 0.100000 0.000000
vn 0.000000 0.100000 0.000000
vn 0.000000 0.100000 0.000000
vn 0.000000 0.100000 0.000000
vn 0.000000 0.100000 0.000000
vn 0.000000 0.100000 0.000000
vn 0.000000 0.100000 0.000000
vn 0.000000 0.100000 0.000000
vn 0.000000 0.100000 0.000000
vn 0.000000 0.100000 0.000000
vn 0.000000 0.100000 0.000000
vn 0.000000 0.100000 0.000000
vn 0.000000 0.100000 0.000000
vn 0.000000 0.100000 0.000000
vn 0.000000 0.100000 0.000000
vn 0.000000 0.100000 0.000000
vn 0.000000 0.100000 0.000000
vn 0.000000 0.100000 0.000000
vn 0.000000 0.100000 0.000000
vn 0.000000 0.100000 0.000000
vn 0.000000 0.100000 0.000000
vn 0.000000 0.100000 0.000000
vn 0.000000 0.100000 0.000000
vn 0.000000 0.100000 0.000000
vn 0.000000 0.100000 0.000000
vn 0.000000 0.100000 0.000000
vn 0.000000 0.100000 0.000000
vn 0.000000 0.100000 0.000000
vn 0.000000 0.100000 0.000000
vn 0.000000 0.100000 0.000000
vn 0.000000 0.100000 0.000000
vn 0.000000 0.100000 0.000000
vn 0.000000 -0.100000 0.000000
vn 0.000000 -0.100000 0.000000
vn 0.000000 -0.100000 0.000000
vn 0.000000 -0.100000 0.000000
vn 0.000000 -0.100000 0.000000
vn 0.000000 -0.100000 0.000000
vn 0.000000 -0.100000 0.000000
vn 0.000000 -0.100000 0.000000
vn 0.000000 -0.100000 0.000000
vn 0.000000 -0.100000 0.000000
vn 0.000000 -0.100000 0.000000
vn 0.000000 -0.100000 0.000000
vn 0.000000 -0.100000 0.000000
vn 0.000000 -0.100000 0.000000
vn 0.000000 -0.100000 0.000000
vn 0.000000 -0.100000 0.000000
vn 0.000000 -0.100000 0.000000
vn 0.000000 -0.100000 0.000000
vn 0.000000 -0.100000 0.000000
vn 0.000000 -0.100000 0.000000
vn 0.000000 -0.100000 0.000000
vn 0.000000 -0.100000 0.000000
vn 0.000000 -0.100000 0.000000
vn 0.000000 -0.100000 0.000000
vn 0.000000 -0.100000 0.000000
vn 0.000000 -0.100000 0.000000
vn 0.000000 -0.100000 0.000000
vn 0.000000 -0.100000 0.000000
vn 0.000000 -0.100000 0.000000
vn 0.000000 -0.100000 0.000000
vn 0.000000 -0.100000 0.000000
vn 0.000000 -0.100000 0.000000
vn 0.000000 -0.100000 0.000000
vn 0.000000 -0.100000 0.000000
vn 0.000000 -0.100000 0.000000
vn 0.000000 -0.100000 0.000000
vn 0.000000 -0.100000 0.000000
vn 0.000000 -0.100000 0.000000
vn 0.000000 -0.100000 0.000000
vn 0.000000 -0.100000 0.000000
vn 0.000000 -0.100000 0.000000
vn 0.000000 -0.100000 0.000000
vn 0.000000 -0.100000 0.000000
vn 0.000000 -0.100000 0.000000
vn 0.000000 -0.100000 0.000000
vn 0.000000 -0.100000 0.000000
vn 0.000000 -0.100000 0.000000
vn 0.000000 -0.100000 0.000000
vn 0.000000 -0.100000 0.000000
vn 0.000000 -0.100000 0.000000
usemtl 191,191,191
f 5/2/2 3/100/100 2/1/1
f 2/1/1 3/100/100 1/51/51
f 2/1/1 1/51/51 6/50/50
f 6/50/50 1/51/51 4/52/52
f 6/50/50 4/52/52 10/49/49
f 10/49/49 4/52/52 8/53/53
f 10/49/49 8/53/53 14/48/48
f 14/48/48 8/53/53 12/54/54
f 14/48/48 12/54/54 18/47/47
f 18/47/47 12/54/54 16/55/55
f 18/47/47 16/55/55 22/46/46
f 22/46/46 16/55/55 20/56/56
f 22/46/46 20/56/56 26/45/45
f 26/45/45 20/56/56 24/57/57
f 26/45/45 24/57/57 30/44/44
f 30/44/44 24/57/57 28/58/58
f 30/44/44 28/58/58 34/43/43
f 34/43/43 28/58/58 32/59/59
f 34/43/43 32/59/59 38/42/42
f 38/42/42 32/59/59 36/60/60
f 38/42/42 36/60/60 42/41/41
f 42/41/41 36/60/60 40/61/61
f 42/41/41 40/61/61 46/40/40
f 46/40/40 40/61/61 44/62/62
f 46/40/40 44/62/62 50/39/39
f 50/39/39 44/62/62 48/63/63
f 50/39/39 48/63/63 54/38/38
f 54/38/38 48/63/63 52/64/64
f 54/38/38 52/64/64 58/37/37
f 58/37/37 52/64/64 56/65/65
f 58/37/37 56/65/65 62/36/36
f 62/36/36 56/65/65 60/66/66
f 62/36/36 60/66/66 66/35/35
f 66/35/35 60/66/66 64/67/67
f 66/35/35 64/67/67 70/34/34
f 70/34/34 64/67/67 68/68/68
f 70/34/34 68/68/68 74/33/33
f 74/33/33 68/68/68 72/69/69
f 74/33/33 72/69/69 78/32/32
f 78/32/32 72/69/69 76/70/70
f 78/32/32 76/70/70 82/31/31
f 82/31/31 76/70/70 80/71/71
f 82/31/31 80/71/71 86/30/30
f 86/30/30 80/71/71 84/72/72
f 86/30/30 84/72/72 90/29/29
f 90/29/29 84/72/72 88/73/73
f 90/29/29 88/73/73 94/28/28
f 94/28/28 88/73/73 92/74/74
f 94/28/28 92/74/74 98/27/27
f 98/27/27 92/74/74 96/75/75
f 98/27/27 96/75/75 100/26/26
f 100/26/26 96/75/75 99/101/101
f 100/102/102 99/76/76 97/25/25
f 97/25/25 99/76/76 95/77/77
f 97/25/25 95/77/77 93/24/24
f 93/24/24 95/77/77 91/78/78
f 93/24/24 91/78/78 89/23/23
f 89/23/23 91/78/78 87/79/79
f 89/23/23 87/79/79 85/22/22
f 85/22/22 87/79/79 83/80/80
f 85/22/22 83/80/80 81/21/21
f 81/21/21 83/80/80 79/81/81
f 81/21/21 79/81/81 77/20/20
f 77/20/20 79/81/81 75/82/82
f 77/20/20 75/82/82 73/19/19
f 73/19/19 75/82/82 71/83/83
f 73/19/19 71/83/83 69/18/18
f 69/18/18 71/83/83 67/84/84
f 69/18/18 67/84/84 65/17/17
f 65/17/17 67/84/84 63/85/85
f 65/17/17 63/85/85 61/16/16
f 61/16/16 63/85/85 59/86/86
f 61/16/16 59/86/86 57/15/15
f 57/15/15 59/86/86 55/87/87
f 57/15/15 55/87/87 53/14/14
f 53/14/14 55/87/87 51/88/88
f 53/14/14 51/88/88 49/13/13
f 49/13/13 51/88/88 47/89/89
f 49/13/13 47/89/89 45/12/12
f 45/12/12 47/89/89 43/90/90
f 45/12/12 43/90/90 41/11/11
f 41/11/11 43/90/90 39/91/91
f 41/11/11 39/91/91 37/10/10
f 37/10/10 39/91/91 35/92/92
f 37/10/10 35/92/92 33/9/9
f 33/9/9 35/92/92 31/93/93
f 33/9/9 31/93/93 29/8/8
f 29/8/8 31/93/93 27/94/94
f 29/8/8 27/94/94 25/7/7
f 25/7/7 27/94/94 23/95/95
f 25/7/7 23/95/95 21/6/6
f 21/6/6 23/95/95 19/96/96
f 21/6/6 19/96/96 17/5/5
f 17/5/5 19/96/96 15/97/97
f 17/5/5 15/97/97 13/4/4
f 13/4/4 15/97/97 11/98/98
f 13/4/4 11/98/98 9/3/3
f 9/3/3 11/98/98 7/99/99
f 9/3/3 7/99/99 5/2/2
f 5/2/2 7/99/99 3/100/100
f 2/103/103 6/104/104 5/152/152
f 5/152/152 6/104/104 9/151/151
f 9/151/151 6/104/104 10/105/105
f 9/151/151 10/105/105 13/150/150
f 13/150/150 10/105/105 14/106/106
f 13/150/150 14/106/106 17/149/149
f 17/149/149 14/106/106 18/107/107
f 17/149/149 18/107/107 21/148/148
f 21/148/148 18/107/107 22/108/108
f 21/148/148 22/108/108 25/147/147
f 25/147/147 22/108/108 26/109/109
f 25/147/147 26/109/109 29/146/146
f 29/146/146 26/109/109 30/110/110
f 29/146/146 30/110/110 33/145/145
f 33/145/145 30/110/110 34/111/111
f 33/145/145 34/111/111 37/144/144
f 37/144/144 34/111/111 38/112/112
f 37/144/144 38/112/112 41/143/143
f 41/143/143 38/112/112 42/113/113
f 41/143/143 42/113/113 45/142/142
f 45/142/142 42/113/113 49/141/141
f 49/141/141 42/113/113 53/140/140
f 53/140/140 42/113/113 57/139/139
f 57/139/139 42/113/113 61/138/138
f 61/138/138 42/113/113 65/137/137
f 65/137/137 42/113/113 69/136/136
f 69/136/136 42/113/113 73/135/135
f 73/135/135 42/113/113 77/134/134
f 77/134/134 42/113/113 81/133/133
f 81/133/133 42/113/113 85/132/132
f 85/132/132 42/113/113 89/131/131
f 89/131/131 42/113/113 93/130/130
f 93/130/130 42/113/113 97/129/129
f 97/129/129 42/113/113 100/128/128
f 100/128/128 42/113/113 98/127/127
f 98/127/127 42/113/113 94/126/126
f 94/126/126 42/113/113 90/125/125
f 90/125/125 42/113/113 86/124/124
f 86/124/124 42/113/113 82/123/123
f 82/123/123 42/113/113 78/122/122
f 78/122/122 42/113/113 74/121/121
f 74/121/121 42/113/113 70/120/120
f 70/120/120 42/113/113 66/119/119
f 66/119/119 42/113/113 62/118/118
f 62/118/118 42/113/113 46/114/114
f 62/118/118 46/114/114 58/117/117
f 58/117/117 46/114/114 50/115/115
f 58/117/117 50/115/115 54/116/116
f 1/153/153 3/154/154 4/202/202
f 4/202/202 3/154/154 8/201/201
f 8/201/201 3/154/154 7/155/155
f 8/201/201 7/155/155 12/200/200
f 12/200/200 7/155/155 11/156/156
f 12/200/200 11/156/156 16/199/199
f 16/199/199 11/156/156 15/157/157
f 16/199/199 15/157/157 20/198/198
f 20/198/198 15/157/157 19/158/158
f 20/198/198 19/158/158 24/197/197
f 24/197/197 19/158/158 23/159/159
f 24/197/197 23/159/159 28/196/196
f 28/196/196 23/159/159 27/160/160
f 28/196/196 27/160/160 32/195/195
f 32/195/195 27/160/160 31/161/161
f 32/195/195 31/161/161 36/194/194
f 36/194/194 31/161/161 35/162/162
f 36/194/194 35/162/162 40/193/193
f 40/193/193 35/162/162 39/163/163
f 40/193/193 39/163/163 44/192/192
f 44/192/192 39/163/163 48/191/191
f 48/191/191 39/163/163 52/190/190
f 52/190/190 39/163/163 56/189/189
f 56/189/189 39/163/163 60/188/188
f 60/188/188 39/163/163 64/187/187
f 64/187/187 39/163/163 68/186/186
f 68/186/186 39/163/163 72/185/185
f 72/185/185 39/163/163 76/184/184
f 76/184/184 39/163/163 80/183/183
f 80/183/183 39/163/163 84/182/182
f 84/182/182 39/163/163 88/181/181
f 88/181/181 39/163/163 92/180/180
f 92/180/180 39/163/163 96/179/179
f 96/179/179 39/163/163 99/178/178
f 99/178/178 39/163/163 95/177/177
f 95/177/177 39/163/163 91/176/176
f 91/176/176 39/163/163 87/175/175
f 87/175/175 39/163/163 83/174/174
f 83/174/174 39/163/163 79/173/173
f 79/173/173 39/163/163 75/172/172
f 75/172/172 39/163/163 71/171/171
f 71/171/171 39/163/163 67/170/170
f 67/170/170 39/163/163 63/169/169
f 63/169/169 39/163/163 59/168/168
f 59/168/168 39/163/163 43/164/164
f 59/168/168 43/164/164 55/167/167
f 55/167/167 43/164/164 47/165/165
f 55/167/167 47/165/165 51/166/166
# 100 vertices
# 202 texture params
# 202 normals
# 196 facets

# 1 groups
